<?xml version="1.0" encoding="UTF-8"?>
<svg id="Layer_1" data-name="Layer 1" xmlns="http://www.w3.org/2000/svg" xmlns:xlink="http://www.w3.org/1999/xlink" viewBox="0 0 500 1000">
  <defs>
    <style>
      .cls-1 {
        fill: #40a24f;
      }

      .cls-2 {
        fill: #7bd689;
      }

      .cls-3 {
        opacity: .54;
      }

      .cls-4, .cls-5, .cls-6, .cls-7 {
        fill: #fff;
      }

      .cls-4, .cls-5, .cls-7, .cls-8, .cls-9 {
        stroke: #231f20;
        stroke-miterlimit: 10;
      }

      .cls-4, .cls-7, .cls-8, .cls-9 {
        stroke-width: 4px;
      }

      .cls-4, .cls-9 {
        stroke-linecap: round;
      }

      .cls-5 {
        stroke-width: 3px;
      }

      .cls-10, .cls-8, .cls-9 {
        fill: none;
      }

      .cls-11 {
        fill: #f1c02f;
      }

      .cls-12 {
        fill: #231f20;
      }

      .cls-13 {
        fill: #df9a19;
      }

      .cls-14 {
        opacity: .1;
      }

      .cls-15 {
        clip-path: url(#clippath);
      }

      .cls-16 {
        opacity: .5;
      }
    </style>
    <clipPath id="clippath">
      <polygon class="cls-10" points="180.39 584.35 184.82 687.86 261.89 674.37 257.46 570.86 180.39 584.35"/>
    </clipPath>
  </defs>
  <path class="cls-9" d="M75.41,513.33c6.6,6.33,34.09,22.74,51.29,30.65,10.47,4.82,22.82,7.91,31.26,7.87"/>
  <path class="cls-9" d="M283.92,556.13c12.98.14,35.46-1.67,57.71-10.01,15.25-5.72,42.09-16.92,50.68-23.16"/>
  <g>
    <path class="cls-8" d="M231.23,790.32c-2.21,2.21-4.43,6.14-6.88,11.92-2.48,5.86-4.09,11.08-4.13,14.22"/>
    <path class="cls-8" d="M304.38,791.24c2.86,1.25,7.12,3.19,11.46,7.57,4.22,4.26,6.78,9.09,8.03,11.92"/>
    <path class="cls-1" d="M253.24,805.31c13.32,1.88,24.26,1.03,30.03.35,6.89-.81,12.05-2.05,13.85-2.49,15.84-3.89,32.71-12.54,32.71-15.9,0-1.51-12.89-20.99-20.64-40.36-7.95-19.87-20.25-50.91-23.62-86.83-2.98-31.8-1.58-65.02.08-97.22,2.45-47.69,6.73-55.64,11.62-78.19,2.35-10.84,7.29-26.8,5.81-26.06-2.37,1.18-22.46,16.74-53.5,20.18-14.52,1.61-34.75-.54-53.5-9.17-14.4-6.63-21.99-12.8-22.51-11.66-2,4.44-16.32,36.27-20.75,83.12-.9,9.56-1.07,18.99-1.04,29.14,0,2.95.1,25.2,3.1,48.59,2.24,17.49,7.46,49.72,28.05,101.2,12.54,31.34,33.86,73.87,37.3,75.52,6.85,3.27,19.3,7.85,33.02,9.78Z"/>
    <path class="cls-12" d="M155.94,848.18c-2.35-4.03,13.76-20.94,23.24-24.61,7.09-2.75,10.54-1.09,15.13-3.06,3.21-1.38,4.13-14.65,10.7-15.59,2.14-.31,5.07,4.67,12.38,6.11,7.13,1.41,15.44-.15,16.05.92.68,1.18,1.68,1.67,3.97,5.35,3.17,5.08,4.75,7.62,4.59,8.71-.87,5.83-26.14,4.43-40.36,9.94-8.11,3.14-22.93,9.02-38.37,12.38-5.92,1.29-6.64,1.04-7.34-.15Z"/>
    <path class="cls-12" d="M407.03,848.87c2.81-4.42-14.39-16.31-25.68-20.33-8.45-3.01-21.12-6.71-26.6-8.87-3.83-1.51-7.3-17.62-15.13-18.65-2.55-.34-.61,3.61-9.32,5.2-8.5,1.55-18.53.66-19.26,1.83-.81,1.3-.92,5.06-.92,9.94,0,6.09-4.17,9.5-3.97,10.7,1.03,6.39,25.83,1.99,39.75,9.63,8.99,4.94,32.81,6.99,51.21,10.67,7.05,1.41,9.11,1.18,9.94-.13Z"/>
    <g>
      <path class="cls-13" d="M343.49,363.34c-.06.62-.12,1.22-.2,1.83-.05.5-.11.99-.17,1.49s-.12.99-.2,1.49c-.87,6.58-2.18,12.96-3.89,19.11-.13.49-.27.97-.42,1.45-.13.48-.27.97-.42,1.43-1.93,6.49-4.32,12.7-7.11,18.61-.22.46-.43.91-.65,1.36-.22.45-.44.91-.67,1.36-3.3,6.6-7.1,12.8-11.33,18.48-.29.41-.6.82-.93,1.23-.3.42-.63.83-.95,1.24-3.97,5.08-8.29,9.73-12.91,13.9-.4.37-.81.73-1.22,1.09-.41.36-.83.72-1.25,1.07-4.7,4-9.7,7.52-14.91,10.48-.59.33-1.17.66-1.75.96-.6.33-1.2.65-1.81.94-5.4,2.78-11.04,4.95-16.82,6.47h0c-.94.27-1.88.49-2.83.7-1.01.24-2.02.45-3.05.63h-.02c-7.19,1.35-28.95-.35-36.43-1.1-51.91-5.19-74.44-59.14-68.06-123.02,6.38-63.89,43.77-112.92,95.68-107.73,10.17,1.02,29.64,5.43,38.45,10.03.67.34,1.34.7,1.99,1.07.64.35,1.28.71,1.91,1.1,4.93,2.9,9.58,6.34,13.91,10.25.45.39.9.79,1.34,1.22.44.4.87.81,1.3,1.23,4.55,4.41,8.72,9.35,12.48,14.73.31.44.61.88.9,1.33.31.44.6.88.88,1.32,3.76,5.73,7.04,11.93,9.8,18.51.2.47.4.94.58,1.42.2.47.39.94.56,1.41,2.13,5.42,3.9,11.08,5.28,16.94.12.48.23.97.34,1.46.11.48.22.98.33,1.47,1.53,7.18,2.5,14.62,2.84,22.27.03.5.05,1,.06,1.5.02.49.04,1,.05,1.5.14,5.82-.08,11.75-.68,17.75Z"/>
      <g class="cls-3">
        <line class="cls-10" x1="263.04" y1="468.04" x2="249.34" y2="463.85"/>
        <path class="cls-12" d="M265.87,467.34c-.94.27-1.88.5-2.83.7-1.01.24-2.02.45-3.05.63h-.02s-11.07-3.39-11.07-3.39l.43-1.43.43-1.43,16.1,4.93Z"/>
      </g>
      <g class="cls-3">
        <line class="cls-10" x1="284.51" y1="459.93" x2="271.4" y2="455.23"/>
        <path class="cls-12" d="M286.27,458.97c-.59.33-1.17.66-1.75.96-.6.33-1.2.65-1.81.94l-11.81-4.24.51-1.41.5-1.42,14.36,5.15Z"/>
      </g>
      <g class="cls-3">
        <line class="cls-10" x1="302.42" y1="447.42" x2="289.81" y2="441.62"/>
        <path class="cls-12" d="M303.65,446.32c-.4.37-.81.73-1.22,1.09-.41.36-.83.72-1.25,1.07l-11.98-5.5.62-1.37.63-1.36,13.21,6.06Z"/>
      </g>
      <g class="cls-3">
        <line class="cls-10" x1="317.5" y1="431.18" x2="302.75" y2="425.18"/>
        <path class="cls-12" d="M318.43,429.95c-.29.41-.6.82-.93,1.23-.3.42-.63.83-.95,1.24l-14.38-5.86.57-1.39.56-1.39,15.12,6.16Z"/>
      </g>
      <g class="cls-3">
        <line class="cls-10" x1="330.43" y1="410.11" x2="315.14" y2="404.98"/>
        <path class="cls-12" d="M331.08,408.74c-.22.46-.43.91-.65,1.36-.22.45-.44.91-.67,1.36l-15.1-5.06.47-1.43.47-1.42,15.47,5.18Z"/>
      </g>
      <g class="cls-3">
        <line class="cls-10" x1="338.61" y1="388.7" x2="322.48" y2="384.52"/>
        <path class="cls-12" d="M339.03,387.26c-.13.49-.27.97-.42,1.45-.13.48-.27.97-.42,1.43l-16.09-4.17.38-1.45.38-1.45,16.17,4.19Z"/>
      </g>
      <g class="cls-3">
        <line class="cls-10" x1="343.12" y1="366.66" x2="326.09" y2="364.6"/>
        <path class="cls-12" d="M343.28,365.17c-.05.5-.11.99-.17,1.49s-.12.99-.2,1.49l-17.01-2.06.18-1.49.18-1.49,17.02,2.06Z"/>
      </g>
      <g class="cls-3">
        <line class="cls-10" x1="344.12" y1="344.09" x2="326.1" y2="343.63"/>
        <path class="cls-12" d="M344.17,345.59l-18.1-.46.04-1.5.04-1.49,17.91.45c.03.5.05,1,.06,1.5.02.49.04,1,.05,1.5Z"/>
      </g>
      <g class="cls-3">
        <line class="cls-10" x1="340.89" y1="318.84" x2="324.39" y2="321.57"/>
        <path class="cls-12" d="M341.21,320.31l-16.58,2.73-.24-1.48-.23-1.48,16.4-2.7c.12.48.23.97.34,1.46.11.48.22.98.33,1.47Z"/>
      </g>
      <g class="cls-3">
        <line class="cls-10" x1="334.71" y1="299.03" x2="317.58" y2="302.25"/>
        <path class="cls-12" d="M335.27,300.44l-17.41,3.28-.27-1.47-.27-1.47,16.82-3.17c.2.47.4.94.58,1.42.2.47.39.94.56,1.41Z"/>
      </g>
      <g class="cls-3">
        <line class="cls-10" x1="323.45" y1="277.77" x2="308.8" y2="281.53"/>
        <path class="cls-12" d="M324.33,279.1l-15.15,3.88-.38-1.45-.37-1.45,14.11-3.62c.31.44.61.88.9,1.33.31.44.6.88.88,1.32Z"/>
      </g>
      <g class="cls-3">
        <line class="cls-10" x1="308.76" y1="260.49" x2="295.14" y2="263.8"/>
        <path class="cls-12" d="M310.07,261.72l-14.57,3.54-.36-1.45-.36-1.46,12.65-3.07c.45.39.9.79,1.34,1.22.44.4.87.81,1.3,1.23Z"/>
      </g>
      <g class="cls-3">
        <line class="cls-10" x1="289.13" y1="246.71" x2="278.64" y2="249.53"/>
        <path class="cls-12" d="M291.07,247.74l-12.05,3.23-.38-1.45-.39-1.45,8.85-2.38c.68.32,1.36.65,2.03,1.01.65.32,1.3.67,1.94,1.03Z"/>
      </g>
      <path class="cls-11" d="M328.94,361.43c-4.49,44.9-28.85,81.77-60.69,97.94-2.5,1.27-5.03,2.41-7.62,3.41-2.81,1.11-5.67,2.05-8.57,2.81-8.81,2.37-18,3.19-27.32,2.25-21.31-2.13-40.04-13.08-54.17-29.73-3.56-4.19-6.82-8.74-9.76-13.61-3.43-5.66-6.42-11.75-8.93-18.18-7.33-18.82-10.49-40.6-8.22-63.41,5.52-55.24,41.14-98.34,83.74-105.69,5.72-1,11.56-1.34,17.48-.97.98.05,1.97.13,2.96.23,4.04.4,7.98,1.12,11.82,2.14,29.78,7.88,53.18,33.54,63.78,67.15,1.06,3.31,1.97,6.71,2.76,10.17.72,3.14,1.33,6.33,1.82,9.57,1.78,11.46,2.14,23.54.9,35.92Z"/>
      <g class="cls-14">
        <path d="M323.45,305.77l-71.39,159.81c-8.81,2.37-18,3.19-27.32,2.25-21.31-2.13-40.04-13.08-54.17-29.73l28.12-62.96,21.16-47.37,39.83-89.16c29.78,7.88,53.18,33.54,63.78,67.15Z"/>
        <path d="M244.9,236.26l-36.03,80.67-17.55,39.27h0s-30.5,68.31-30.5,68.31c-3.43-5.66-6.42-11.75-8.93-18.18l75.53-169.1c5.72-1,11.56-1.34,17.48-.97Z"/>
        <path d="M328.03,325.51l-59.79,133.86c-2.5,1.27-5.03,2.41-7.62,3.41l65.59-146.84c.72,3.14,1.33,6.33,1.82,9.57Z"/>
      </g>
      <path class="cls-11" d="M328.28,325.35c-.49-3.23-1.1-6.43-1.82-9.57-.79-3.46-1.71-6.85-2.76-10.17-10.6-33.61-33.99-59.27-63.78-67.15-3.84-1.02-7.78-1.73-11.82-2.14-1-.1-1.98-.18-2.96-.23-5.92-.37-11.77-.03-17.48.97-42.6,7.35-78.22,50.44-83.74,105.69-2.28,22.81.88,44.59,8.22,63.41,2.5,6.43,5.49,12.52,8.93,18.18,2.93,4.87,6.19,9.41,9.76,13.61,14.13,16.66,32.86,27.6,54.17,29.73,9.32.93,18.51.11,27.32-2.25,2.9-.77,5.76-1.71,8.57-2.81,2.58-1,5.12-2.14,7.62-3.41,31.84-16.17,56.2-53.04,60.69-97.94,1.24-12.38.88-24.45-.9-35.92ZM265.19,448.13c-2.24,1.13-4.52,2.16-6.83,3.06-2.52.99-5.09,1.83-7.69,2.52-7.89,2.13-16.13,2.86-24.49,2.02-19.1-1.91-35.89-11.73-48.57-26.66-3.19-3.76-6.11-7.84-8.74-12.2-3.08-5.07-5.76-10.54-8.01-16.3-6.57-16.88-9.41-36.41-7.36-56.85,4.95-49.52,36.89-88.16,75.08-94.75,5.12-.89,10.36-1.2,15.67-.87.88.05,1.77.12,2.65.2,3.62.36,7.16,1.01,10.59,1.91,26.71,7.07,47.68,30.08,57.19,60.21.95,2.97,1.77,6.01,2.48,9.11.64,2.81,1.19,5.68,1.63,8.57,1.6,10.28,1.92,21.11.81,32.2-4.02,40.26-25.87,73.31-54.41,87.81Z"/>
      <ellipse class="cls-5" cx="207.8" cy="349.09" rx="17.2" ry="32.56" transform="translate(-21.37 13.64) rotate(-3.58)"/>
      <ellipse class="cls-5" cx="254.61" cy="360.39" rx="23.23" ry="15.72" transform="translate(-154.03 526.9) rotate(-76.93)"/>
      <polygon class="cls-6" points="226.23 399.17 227.03 406.47 225.42 417.99 222.32 427.51 223.11 430.35 243.1 427.13 263.25 414.55 273.93 398.41 276.45 388.52 269.74 391.07 256.37 395.73 239.67 398.36 226.23 399.17"/>
      <path class="cls-12" d="M265.59,306.63c-4.01.15-7.74,7.1-6.07,9.99.91,1.58,3.09.59,5.93,2.13,4.52,2.45,10.01,12.13,11.44,11.59,1.32-.5.23-8.6-3.79-15.89-2.12-3.85-4.37-7.94-7.51-7.82Z"/>
      <path class="cls-12" d="M190.76,279.83c-1.53.07.43-9.66,5.84-16.16,4.87-5.85,13.93-9.38,16.16-7.56.75.61.9,3.44,1.22,4.73.35,1.46.96,3.45.76,4.3-.59,2.45-5.73,1.82-10.86,4.14-4.1,1.86-7.44,10.28-13.11,10.56Z"/>
      <ellipse cx="208.27" cy="362.89" rx="7.64" ry="9.94" transform="translate(-63.84 45.05) rotate(-10.72)"/>
      <ellipse cx="253.44" cy="366.71" rx="9.94" ry="7.64" transform="translate(-166.74 515.57) rotate(-74.86)"/>
      <path d="M284.09,392.02c-.58-1.38-1.59-3.22-4.34-5.16-3.57-2.5-10.08-2.68-11.2-2.43-1.08.24-1.8,1.33-1.56,2.4.24,1.08,1.28,1.77,2.35,1.52.09-.01.21-.02.36-.01-5.66,3.07-13.66,6.38-24.72,7.75-10.23,1.26-20.5,1.11-26.81-.41-1.07-.26-2.16.41-2.42,1.48-.26,1.08.41,2.15,1.49,2.41,1.82.44,3.92.77,6.21,1,.37.04.76.07,1.14.09.34,3.9.3,9.71-.46,14.08-.94,5.42-2.16,9.74-3.72,13.21-1.28-.18-2.89-.45-5.27-.87-1.1-.19-2.12.54-2.31,1.63-.19,1.1.54,2.12,1.63,2.31,3.44.6,5.42.92,7.02,1.08,1.88.19,3.22.15,5.77.09l1.09-.02c10.84-.24,26.61-8.46,32.4-12.98,11.35-8.88,16.32-22.11,18.06-27.98.91.88,1.33,1.66,1.62,2.33.29.7.94,1.16,1.65,1.23.32.03.65-.01.97-.14,1.02-.42,1.51-1.6,1.08-2.62ZM258.25,416.05c-6.15,4.81-20.9,11.93-30.02,12.12l-1.1.03c-1,.02-1.79.04-2.51.04,1.43-3.52,2.55-7.72,3.44-12.8.13-.77.24-1.62.34-2.49l9.21-2.47-8.95-.48c.19-3.03.18-6.26-.04-9.11,5.17.16,10.97-.11,16.86-.84,14.07-1.74,23.48-6.48,29.52-10.16-1.44,4.85-6.09,17.81-16.74,26.14Z"/>
    </g>
    <path class="cls-2" d="M291.96,758.57c2.18-.61,4.33-1.4,6.57-1.73,2.1-.31,3.86-.77,5.67-.94.8-.08,1.49-.19,2.26-.16.16,0,.28-.15.2-.3-2.64-5.22-5.21-10.64-7.45-16.43-7.02-18.19-17.89-46.61-20.87-79.49-2.63-29.11-1.39-59.53.07-89.01,1.87-37.69,4.94-48.28,8.53-63.74-1.32-.14-2.32-.21-3.65-.17-1.52.04-3.75,0-5.66.08-1.47.06-2.64.27-4.13.09-2.24-.26-3.45-1.92-3.67-4.08-.32-3.12.75-6.34,1.72-9.26.79-2.37,1.68-4.74,2.24-7.18-7.39,3.15-16.59,6.06-27.26,7.28-12.83,1.47-30.71-.49-47.28-8.4-.4-.19-.77-.37-1.15-.56-.67,3.73-1.39,5.49-2.87,9.07-.79,1.9-1.96,5.07-2.57,7.04-.36,1.15-.84,2.52-1.23,3.58-.78,2.09-2.17,3.42-4.34,4.03-1.66.47-2.94.76-4.58,1.07-1.71.33-3.45.45-5.19.4-2.99-.08-6.3-.11-9.37-.47-2.84,11.51-5.47,25.45-6.92,41.28-.8,8.75-.94,17.38-.92,26.68,0,2.7.09,23.07,2.74,44.49,1.98,16.01,6.59,45.52,24.79,92.65,5.75,14.9,13.6,32.56,20.24,46.31,5.24-.31,6.87-.24,11.89,1.18.68.19,4.52,1.31,5.2,1.53,1.69.54,3.23,1.36,4.89,1.99,1.41.53,2.57,2.77,3.67,3.82,1.26,1.21,1.31,3.73,1.83,5.35,1.29,4.02,1.41,10.12,2.45,14.22.61,2.43,2.29,1.68,5.26,2.46,2.18.48,4.42.9,6.7,1.23,11.77,1.72,21.44.94,26.53.32,6.09-.74,10.64-1.88,12.24-2.28,3.9-.99,7.86-2.32,11.56-3.79-2.25-3.24-4.72-6.33-6.79-9.7-1.11-1.8-2.12-3.17-3.07-5.06-.82-1.63-2.06-3.36-2.64-5.2-.65-2.1-2.41-4.35-.46-6.16,1.28-1.19,3.2-1.59,4.83-2.04Z"/>
    <g class="cls-16">
      <g class="cls-15">
        <path class="cls-6" d="M189.55,658.85c4.49,4.85,8.16,10.93,12.8,15.54,2.12,2.11,4.48,3.59,6.97,4.61,1.89.6,3.82,1.08,5.76,1.51,1.37.17,2.75.25,4.15.21,3.16-.09,6.24-1,9.38-1.46,1.73-.99,3.59-1.47,5.34-2.46,3.8-2.16,7.32-5.42,10.44-9.13,2.42-2.87,4.63-6.19,7.05-9.1,2.69-4.88,4.83-10.31,6.25-16.11-.17-1.23-.38-2.44-.73-3.58-.58-1.91-2.22-4.3-3.99-3.52-1.72.75-2.93,3.57-3.92,5.45-.62,1.19-1.3,2.31-2.01,3.38-3.11,8.74-8.43,16.01-14.99,20.26-.8.83-1.63,1.61-2.52,2.24-1.82,1.29-3.92,2-5.9,2.42-5.95,1.24-11.85-.7-16.88-4.48,0,0-.01,0-.02-.01-.03-.02-.06-.05-.09-.07-3.62-2.48-6.75-6.04-9.16-10.42-.27-.3-.54-.61-.78-.98-1.45-2.21-2.11-5.37-2.92-8.09-.5-1.69-1.77-4.71-1.2-6.78-.02-.19-.06-.37-.08-.56l.34-.06c.21-.39.51-.73.94-.99.84-.51,1.86-.64,2.74-.86,1.39-.35,2.68-.33,4.05-.04.4.09.76.17,1.08.34l56.88-9.96c.26-.98.51-1.97.61-2.97.19-1.94-.36-3.92-.83-5.67-.97-3.64-2.07-7.17-2.85-10.92-.41-1.96-.8-3.93-1.21-5.89-1.35-1.69-2.69-3.37-3.99-5.13-2.85-3.86-5.61-7.72-9.55-9.58-2.46-1.17-5.06-1.93-7.62-2.71-2.44-.75-4.85-1.51-7.37-1.82-4.43-.55-8.92-.34-13.32-1.11-1.17.68-2.16,1.75-3.4,2.66-2.06,1.51-4.14,2.35-6.06,4.28-1.59,1.59-3.13,3.06-5.02,3.86-.39.16-.77.32-1.16.47-.49.78-.96,1.58-1.4,2.46-1.48,2.92-3.2,5.37-5.09,7.81-.17.21-.32.44-.48.66-.08.25-.16.49-.24.73-.81,4.88-2.56,9.43-3.71,14.23-.69,2.87-1.09,5.75-.89,8.69.21,3.19.48,6.29.38,9.53-.23,7.08,2.1,13.49,3.56,20.03.23,1.03.45,2.05.68,3.08ZM191.83,628.34c.19-1.16.6-2.24.82-3.4.23-1.24.38-2.49.67-3.72.03-.13.08-.24.11-.37,3.39-15.61,13.55-28.13,26.05-30.32,5.27-.92,10.27.14,14.67,2.71.43.13.85.35,1.25.62.84.56,1.69,1,2.56,1.51,1.77,1.04,3.42,2.64,4.95,4.18,2.7,2.72,4.49,6.17,6.09,10.16.44,1.09.87,2.22,1.07,3.46.18,1.12-.12,2.22,0,3.31.09.92.73,1.49.75,2.5.02,1.05-.52,2.06-1.22,2.53-.63.43-1.32.32-1.97.21-.77-.13-1.52.1-2.3.26-.97.2-2.01.42-3.03.46-.77.31-1.57.54-2.28.27l-21.5,3.76c-.35.12-.71.24-1.06.36-1.86.65-3.76,1.1-5.65,1.04-.15,0-.27-.08-.39-.16l-9.8,1.72c-.5.37-.96.43-1.35.24l-3.98.7c-.13.06-.26.11-.4.17-.68.29-1.35.67-2.04.87-.6.17-1.09,0-1.44-.36l-.18.03c0-.08.01-.16.01-.23-.4-.58-.56-1.49-.39-2.5Z"/>
      </g>
      <path class="cls-6" d="M239.18,622.11c-.39-.47-.63-1.08-.83-1.73-.08-.25-.14-.51-.22-.76-.28-.77-.49-1.62-.68-2.5-.02-.05-.04-.11-.07-.16-.15-.34-.31-.69-.45-1.05-.49-.88-1-1.73-1.62-2.45-1.99-2.32-4.31-4.11-6.77-5.43-4.72-2.51-9.69-3.01-14.77-2.01-3.6,2.36-6.62,6.08-8.73,10.62-.19,1.54-.41,3.06-1.03,4.45-.09.19-.2.37-.29.55.05.6-.16,1.21-.53,1.66-.12.15.11,2.4.08,2.81-.1,1.22-.62,2.29-1.36,3.03,0,.07-.01.15-.02.22-.1,1.68,0,5.05.28,6.65.05.28.12.55.17.82.05.08.11.14.16.24.65,1.34.99,2.86,1.46,4.32.11.35.08.75-.03,1.11,3.45,9.07,10.27,14.13,18.31,12.72,7.17-1.25,13.19-7.62,16.17-16-.02-.06-.05-.11-.07-.17-.13-.3-.27-.58-.42-.86-.08-.14-.16-.28-.25-.42,0,0-.04-.05-.07-.1.03.05.06.08-.02-.03-.13-.17-.22-.37-.29-.57-3.34-.52-6.8,2.26-10.08,4.02-3.21,1.72-7.18,2.57-10.09.46-2.41-1.26-4.3-3.88-5.15-7.27l28.41-4.97s.14-3.58-.28-6.59c-.33-.1-.65-.29-.93-.63ZM218.49,626.47c-.35.12-.71.24-1.06.36-1.86.65-3.76,1.1-5.65,1.04-.72-.02-1.02-1.07-.95-1.9.18-2.13,1.57-4.17,2.66-5.66,1.27-1.73,2.71-3.44,4.35-4.49,1.79-1.15,3.92-.58,5.55.46.14.09.27.19.41.28,3.05.88,5.51,3.81,6.51,7.82l-11.82,2.07Z"/>
    </g>
  </g>
  <g>
    <polygon class="cls-6" points="65.66 517.52 60.98 518.19 46.58 511.53 45.86 496.04 56.84 482.47 61.22 483.1 69.58 494.55 68.66 517.47 65.66 517.52"/>
    <path class="cls-7" d="M63.28,518.99c.59-.16,1.62-.61,2.28-.16,1.37.94.57,3.89,1.33,4.13.53.17,1.68-1.57,3.81-4.28.87-1.11,1.49-2.01,2.22-3.02.53-.73,4.11-4.83,7.13-10.46.66-1.24,2.47-4.61,1.52-5.5-.49-.46-1.21.2-2.21.03-2.59-.44-4.37-7.07-6.03-10.73-2.32-5.1-2.37-5.27-3.1-8.63-1.44-6.63,1.49-7.41-.93-12.69-.19-.41-1.45-3.16-3.36-3.28-2.87-.17-4.82,4.13-4.99,10.71-.2,8.11-1.04,9.81-.14,10.85.73.84.82,1,1.36,1.53,1.69,1.67,1.38,1.25,2.28,2.27.72.82,2.56,2.44,2.19,4.02-.42,1.78-2.86,2.06-5.58,1.95-4.3-.18-6.25-1.92-11.16-6.02-3.36-2.79-8.26-5.65-6.95-8.76.3-.72.78-1.17.99-1.34,3.64-2.92,15.85,5.3,16.5,5.72"/>
    <path class="cls-4" d="M37.94,507.76c.78.16,7.51,2.91,8.81,2.78,1.82-.19,5.19-1.03,5.52-2.63.29-1.38-1.84-2.54-6.32-5.81-8.21-6-6.79-6.39-9.11-5.47-2,.79-3.31,4.61-3.38,4.97-.53,2.67,5.99,7.88,7.17,8.51,4.46,2.38,3.8,1.38,11.05,5.01.83.42,1.5.74,2.16,1.04,5.07,2.31,6.11,2.69,6.89,2.84.77.15,3.17.02,4.68-.06"/>
    <path class="cls-7" d="M38.07,492.72c-.68-.81-.89-3.04.1-4.78,1.35-2.38,4.43-.63,5.14-.38,7.94,2.77,12.62,7.64,16.71,12.54,1.49,1.79,1.18,2.61.6,3.41-1.45,2-6.49.42-8.64-.11-2.01-.49-6.05-1.24-13.91-10.68Z"/>
  </g>
  <g>
    <polygon class="cls-6" points="400.91 526.69 405.48 527.91 420.57 522.99 423.11 507.69 413.8 492.93 409.38 493.04 399.73 503.42 397.94 526.29 400.91 526.69"/>
    <path class="cls-7" d="M403.1,528.44c-.57-.22-1.54-.8-2.25-.43-1.47.77-1.02,3.8-1.8,3.94-.55.1-1.49-1.76-3.28-4.7-.74-1.2-1.24-2.17-1.85-3.26-.44-.79-3.51-5.28-5.84-11.23-.51-1.31-1.91-4.87-.86-5.64.54-.4,1.18.34,2.19.29,2.62-.13,5.17-6.51,7.26-9.95,2.91-4.8,2.97-4.95,4.09-8.2,2.21-6.42-.61-7.53,2.42-12.49.23-.38,1.81-2.97,3.73-2.86,2.87.17,4.3,4.67,3.69,11.22-.75,8.07-.12,9.86-1.14,10.79-.82.75-.94.9-1.53,1.36-1.88,1.46-1.51,1.08-2.53,1.99-.82.73-2.83,2.12-2.64,3.73.21,1.82,2.59,2.38,5.31,2.59,4.29.33,6.43-1.18,11.79-4.66,3.66-2.38,8.87-4.63,7.93-7.88-.22-.75-.64-1.26-.82-1.45-3.27-3.33-16.37,3.39-17.05,3.74"/>
    <path class="cls-4" d="M429.59,520.26c-.8.07-7.8,2.01-9.07,1.72-1.78-.4-5.03-1.64-5.18-3.26-.13-1.4,2.13-2.31,6.96-5.03,8.86-5,7.5-5.55,9.7-4.36,1.89,1.02,2.75,4.97,2.78,5.34.21,2.71-6.88,7.12-8.12,7.61-4.71,1.84-3.94.92-11.56,3.67-.88.32-1.58.56-2.27.78-5.31,1.69-6.38,1.95-7.17,2.01-.78.06-3.15-.35-4.64-.61"/>
    <path class="cls-7" d="M431.23,505.31c.77-.73,1.24-2.91.46-4.76-1.06-2.52-4.32-1.15-5.06-.98-8.21,1.81-13.43,6.1-18.07,10.48-1.69,1.6-1.48,2.46-1,3.32,1.2,2.16,6.39,1.18,8.6.91,2.06-.25,6.15-.52,15.07-8.97Z"/>
  </g>
</svg>