<?xml version="1.0" encoding="UTF-8"?>
<svg id="Layer_1" data-name="Layer 1" xmlns="http://www.w3.org/2000/svg" xmlns:xlink="http://www.w3.org/1999/xlink" viewBox="0 0 500 1000">
  <defs>
    <style>
      .cls-1 {
        fill: #40a24f;
      }

      .cls-2 {
        fill: #7bd689;
      }

      .cls-3 {
        opacity: .54;
      }

      .cls-4, .cls-5, .cls-6, .cls-7 {
        fill: #fff;
      }

      .cls-4, .cls-5, .cls-7, .cls-8, .cls-9 {
        stroke: #231f20;
        stroke-miterlimit: 10;
      }

      .cls-4, .cls-7, .cls-8, .cls-9 {
        stroke-width: 4px;
      }

      .cls-4, .cls-9 {
        stroke-linecap: round;
      }

      .cls-5 {
        stroke-width: 3px;
      }

      .cls-10, .cls-8, .cls-9 {
        fill: none;
      }

      .cls-11 {
        fill: #f1c02f;
      }

      .cls-12 {
        fill: #231f20;
      }

      .cls-13 {
        fill: #df9a19;
      }

      .cls-14 {
        opacity: .1;
      }

      .cls-15 {
        clip-path: url(#clippath);
      }

      .cls-16 {
        opacity: .5;
      }
    </style>
    <clipPath id="clippath">
      <polygon class="cls-10" points="214.79 571.33 219.22 674.84 296.3 661.35 291.86 557.84 214.79 571.33"/>
    </clipPath>
  </defs>
  <path class="cls-9" d="M320.41,533.33c2.28-1.59,21.44-5.5,39.9-.31,12.81,3.61,20.48,9.48,24,20.48,9.07,28.4-12.37,54.34-39.52,67.87"/>
  <path class="cls-9" d="M86.69,487.65c3.05,8.01,17.23,27.13,42.65,43.34,21.56,13.74,53.12,11.47,62.05,11.52"/>
  <g>
    <path class="cls-8" d="M265.63,777.31c-2.21,2.21-4.43,6.14-6.88,11.92-2.48,5.86-4.09,11.08-4.13,14.22"/>
    <path class="cls-8" d="M338.78,778.23c2.86,1.25,7.12,3.19,11.46,7.57,4.22,4.26,6.78,9.09,8.03,11.92"/>
    <path class="cls-1" d="M364.23,774.25c0,3.36-16.88,12.01-32.72,15.9-1.8.44-6.95,1.68-13.84,2.49-5.76.68-16.71,1.53-30.03-.35-13.72-1.94-26.17-6.52-33.02-9.79-3.44-1.64-24.76-44.18-37.3-75.51-20.59-51.48-25.8-83.71-28.05-101.2-3-23.4-3.09-45.64-3.1-48.59-.03-10.16.13-19.59,1.04-29.14,4.43-46.86,18.75-78.68,20.75-83.12.52-1.15,8.11,5.02,22.51,11.65,18.75,8.63,38.99,10.78,53.5,9.17,31.05-3.44,51.14-18.99,53.51-20.17,1.48-.74-3.46,15.22-5.81,26.06-4.89,22.55-9.17,30.5-11.62,78.19-.99,19.34-1.9,39.05-1.81,58.59,0,.7,0,1.39,0,2.09,0,.7.01,1.4.02,2.1.01.68.01,1.35.03,2.03,0,.67.02,1.33.03,2s.03,1.34.05,2.01c0,.22,0,.43.01.64-.31.28-.68.51-1.08.63-2.58.73-4.81.94-6.98,1.15-2.95.28-6.01.57-9.71,2.16-5.32,2.3-9.23,7.6-10.22,11.42-.43,1.67-.27,2.99.46,3.94,1.81,2.34,5.83.85,9.07-.35,3.27-1.2,5.14-2.56,6.8-3.75,1.56-1.12,2.79-2.01,4.97-2.6.9-.25,1.77-.39,2.57-.47-1.13.69-2.37,1.57-3.61,2.75-3.48,3.32-7.29,9.42-4.84,12.62,1.75,2.3,5.6,1.7,7.59.99,3.06-1.09,4.47-3.23,5.7-5.12.14-.21.28-.43.42-.63.14,1.67.28,3.35.44,5.02.13,1.37.27,2.73.43,4.08.02.88.12,1.73.29,2.53,4.15,33.11,15.44,61.58,22.9,80.22,7.75,19.37,20.64,38.85,20.64,40.36Z"/>
    <path class="cls-1" d="M319.31,639.03c.07,1,.15,2.01.22,3.01-.14.2-.28.42-.42.63-1.23,1.89-2.64,4.03-5.7,5.12-1.99.71-5.84,1.31-7.59-.99-2.45-3.2,1.36-9.3,4.84-12.62,1.24-1.18,2.48-2.06,3.61-2.75-.8.08-1.67.22-2.57.47-2.18.59-3.41,1.48-4.97,2.6-1.66,1.19-3.53,2.55-6.8,3.75-3.24,1.2-7.26,2.69-9.07.35-.73-.95-.89-2.27-.46-3.94.99-3.82,4.9-9.12,10.22-11.42,3.7-1.59,6.76-1.88,9.71-2.16,2.17-.21,4.4-.42,6.98-1.15.4-.12.77-.35,1.08-.63.02.78.04,1.55.06,2.32.02.71.04,1.41.07,2.11.04,1.3.09,2.6.15,3.9.02.7.06,1.39.09,2.08.02.53.05,1.05.08,1.57.03.73.07,1.46.12,2.18.05,1,.11,2,.17,2.99.06.86.12,1.72.18,2.58Z"/>
    <path class="cls-1" d="M320.69,653.67c-.17-.8-.27-1.65-.29-2.53.09.85.19,1.69.29,2.53Z"/>
    <path class="cls-12" d="M190.35,835.17c-2.35-4.03,13.76-20.94,23.24-24.61,7.09-2.75,10.54-1.09,15.13-3.06,3.21-1.38,4.13-14.65,10.7-15.59,2.14-.31,5.07,4.67,12.38,6.11,7.13,1.41,15.44-.15,16.05.92.68,1.18,1.68,1.67,3.97,5.35,3.17,5.08,4.75,7.62,4.59,8.71-.87,5.83-26.14,4.43-40.36,9.94-8.11,3.14-22.93,9.02-38.37,12.38-5.92,1.29-6.64,1.04-7.34-.15Z"/>
    <path class="cls-12" d="M441.43,835.86c2.81-4.42-14.39-16.31-25.68-20.33-8.45-3.01-21.12-6.71-26.6-8.87-3.83-1.51-7.3-17.62-15.13-18.65-2.55-.34-.61,3.61-9.32,5.2-8.5,1.55-18.53.66-19.26,1.83-.81,1.3-.92,5.06-.92,9.94,0,6.09-4.17,9.5-3.97,10.7,1.03,6.39,25.83,1.99,39.75,9.63,8.99,4.94,32.81,6.99,51.21,10.67,7.05,1.41,9.11,1.18,9.94-.13Z"/>
    <g>
      <path class="cls-13" d="M377.89,350.33c-.06.62-.12,1.22-.2,1.83-.05.5-.11.99-.17,1.49s-.12.99-.2,1.49c-.87,6.58-2.18,12.96-3.89,19.11-.13.49-.27.97-.42,1.45-.13.48-.27.97-.42,1.43-1.93,6.49-4.32,12.7-7.11,18.61-.22.46-.43.91-.65,1.36-.22.45-.44.91-.67,1.36-3.3,6.6-7.1,12.8-11.33,18.48-.29.41-.6.82-.93,1.23-.3.42-.63.83-.95,1.24-3.97,5.08-8.29,9.73-12.91,13.9-.4.37-.81.73-1.22,1.09-.41.36-.83.72-1.25,1.07-4.7,4-9.7,7.52-14.91,10.48-.59.33-1.17.66-1.75.96-.6.33-1.2.65-1.81.94-5.4,2.78-11.04,4.95-16.82,6.47h0c-.94.27-1.88.49-2.83.7-1.01.24-2.02.45-3.05.63h-.02c-7.19,1.35-28.95-.35-36.43-1.1-51.91-5.19-74.44-59.14-68.06-123.02,6.38-63.89,43.77-112.92,95.68-107.73,10.17,1.02,29.64,5.43,38.45,10.03.67.34,1.34.7,1.99,1.07.64.35,1.28.71,1.91,1.1,4.93,2.9,9.58,6.34,13.91,10.25.45.39.9.79,1.34,1.22.44.4.87.81,1.3,1.23,4.55,4.41,8.72,9.35,12.48,14.73.31.44.61.88.9,1.33.31.44.6.88.88,1.32,3.76,5.73,7.04,11.93,9.8,18.51.2.47.4.94.58,1.42.2.47.39.94.56,1.41,2.13,5.42,3.9,11.08,5.28,16.94.12.48.23.97.34,1.46.11.48.22.98.33,1.47,1.53,7.18,2.5,14.62,2.84,22.27.03.5.05,1,.06,1.5.02.49.04,1,.05,1.5.14,5.82-.08,11.75-.68,17.75Z"/>
      <g class="cls-3">
        <line class="cls-10" x1="297.44" y1="455.03" x2="283.74" y2="450.83"/>
        <path class="cls-12" d="M300.27,454.32c-.94.27-1.88.5-2.83.7-1.01.24-2.02.45-3.05.63h-.02s-11.07-3.39-11.07-3.39l.43-1.43.43-1.43,16.1,4.93Z"/>
      </g>
      <g class="cls-3">
        <line class="cls-10" x1="318.91" y1="446.91" x2="305.81" y2="442.21"/>
        <path class="cls-12" d="M320.67,445.95c-.59.33-1.17.66-1.75.96-.6.33-1.2.65-1.81.94l-11.81-4.24.51-1.41.5-1.42,14.36,5.15Z"/>
      </g>
      <g class="cls-3">
        <line class="cls-10" x1="336.83" y1="434.4" x2="324.21" y2="428.61"/>
        <path class="cls-12" d="M338.05,433.31c-.4.37-.81.73-1.22,1.09-.41.36-.83.72-1.25,1.07l-11.98-5.5.62-1.37.63-1.36,13.21,6.06Z"/>
      </g>
      <g class="cls-3">
        <line class="cls-10" x1="351.91" y1="418.17" x2="337.15" y2="412.16"/>
        <path class="cls-12" d="M352.83,416.93c-.29.41-.6.82-.93,1.23-.3.42-.63.83-.95,1.24l-14.38-5.86.57-1.39.56-1.39,15.12,6.16Z"/>
      </g>
      <g class="cls-3">
        <line class="cls-10" x1="364.84" y1="397.09" x2="349.54" y2="391.96"/>
        <path class="cls-12" d="M365.48,395.73c-.22.46-.43.91-.65,1.36-.22.45-.44.91-.67,1.36l-15.1-5.06.47-1.43.47-1.42,15.47,5.18Z"/>
      </g>
      <g class="cls-3">
        <line class="cls-10" x1="373.01" y1="375.69" x2="356.88" y2="371.5"/>
        <path class="cls-12" d="M373.43,374.24c-.13.49-.27.97-.42,1.45-.13.48-.27.97-.42,1.43l-16.09-4.17.38-1.45.38-1.45,16.17,4.19Z"/>
      </g>
      <g class="cls-3">
        <line class="cls-10" x1="377.52" y1="353.64" x2="360.49" y2="351.58"/>
        <path class="cls-12" d="M377.69,352.15c-.05.5-.11.99-.17,1.49s-.12.99-.2,1.49l-17.01-2.06.18-1.49.18-1.49,17.02,2.06Z"/>
      </g>
      <g class="cls-3">
        <line class="cls-10" x1="378.52" y1="331.07" x2="360.5" y2="330.61"/>
        <path class="cls-12" d="M378.57,332.58l-18.1-.46.04-1.5.04-1.49,17.91.45c.03.5.05,1,.06,1.5.02.49.04,1,.05,1.5Z"/>
      </g>
      <g class="cls-3">
        <line class="cls-10" x1="375.29" y1="305.83" x2="358.79" y2="308.55"/>
        <path class="cls-12" d="M375.62,307.3l-16.58,2.73-.24-1.48-.23-1.48,16.4-2.7c.12.48.23.97.34,1.46.11.48.22.98.33,1.47Z"/>
      </g>
      <g class="cls-3">
        <line class="cls-10" x1="369.11" y1="286.01" x2="351.99" y2="289.24"/>
        <path class="cls-12" d="M369.67,287.43l-17.41,3.28-.27-1.47-.27-1.47,16.82-3.17c.2.47.4.94.58,1.42.2.47.39.94.56,1.41Z"/>
      </g>
      <g class="cls-3">
        <line class="cls-10" x1="357.85" y1="264.76" x2="343.2" y2="268.51"/>
        <path class="cls-12" d="M358.73,266.08l-15.15,3.88-.38-1.45-.37-1.45,14.11-3.62c.31.44.61.88.9,1.33.31.44.6.88.88,1.32Z"/>
      </g>
      <g class="cls-3">
        <line class="cls-10" x1="343.16" y1="247.47" x2="329.54" y2="250.78"/>
        <path class="cls-12" d="M344.47,248.7l-14.57,3.54-.36-1.45-.36-1.46,12.65-3.07c.45.39.9.79,1.34,1.22.44.4.87.81,1.3,1.23Z"/>
      </g>
      <g class="cls-3">
        <line class="cls-10" x1="323.53" y1="233.69" x2="313.04" y2="236.51"/>
        <path class="cls-12" d="M325.47,234.73l-12.05,3.23-.38-1.45-.39-1.45,8.85-2.38c.68.32,1.36.65,2.03,1.01.65.32,1.3.67,1.94,1.03Z"/>
      </g>
      <path class="cls-11" d="M363.34,348.41c-4.49,44.9-28.85,81.77-60.69,97.94-2.5,1.27-5.03,2.41-7.62,3.41-2.81,1.11-5.67,2.05-8.57,2.81-8.81,2.37-18,3.19-27.32,2.25-21.31-2.13-40.04-13.08-54.17-29.73-3.56-4.19-6.82-8.74-9.76-13.61-3.43-5.66-6.42-11.75-8.93-18.18-7.33-18.82-10.49-40.6-8.22-63.41,5.52-55.24,41.14-98.34,83.74-105.69,5.72-1,11.56-1.34,17.48-.97.98.05,1.97.13,2.96.23,4.04.4,7.98,1.12,11.82,2.14,29.78,7.88,53.18,33.54,63.78,67.15,1.06,3.31,1.97,6.71,2.76,10.17.72,3.14,1.33,6.33,1.82,9.57,1.78,11.46,2.14,23.54.9,35.92Z"/>
      <g class="cls-14">
        <path d="M357.85,292.76l-71.39,159.81c-8.81,2.37-18,3.19-27.32,2.25-21.31-2.13-40.04-13.08-54.17-29.73l28.12-62.96,21.16-47.37,39.83-89.16c29.78,7.88,53.18,33.54,63.78,67.15Z"/>
        <path d="M279.3,223.24l-36.03,80.67-17.55,39.27h0s-30.5,68.31-30.5,68.31c-3.43-5.66-6.42-11.75-8.93-18.18l75.53-169.1c5.72-1,11.56-1.34,17.48-.97Z"/>
        <path d="M362.44,312.49l-59.79,133.86c-2.5,1.27-5.03,2.41-7.62,3.41l65.59-146.84c.72,3.14,1.33,6.33,1.82,9.57Z"/>
      </g>
      <path class="cls-11" d="M362.68,312.34c-.49-3.23-1.1-6.43-1.82-9.57-.79-3.46-1.71-6.85-2.76-10.17-10.6-33.61-33.99-59.27-63.78-67.15-3.84-1.02-7.78-1.73-11.82-2.14-1-.1-1.98-.18-2.96-.23-5.92-.37-11.77-.03-17.48.97-42.6,7.35-78.22,50.44-83.74,105.69-2.28,22.81.88,44.59,8.22,63.41,2.5,6.43,5.49,12.52,8.93,18.18,2.93,4.87,6.19,9.41,9.76,13.61,14.13,16.66,32.86,27.6,54.17,29.73,9.32.93,18.51.11,27.32-2.25,2.9-.77,5.76-1.71,8.57-2.81,2.58-1,5.12-2.14,7.62-3.41,31.84-16.17,56.2-53.04,60.69-97.94,1.24-12.38.88-24.45-.9-35.92ZM299.59,435.11c-2.24,1.13-4.52,2.16-6.83,3.06-2.52.99-5.09,1.83-7.69,2.52-7.89,2.13-16.13,2.86-24.49,2.02-19.1-1.91-35.89-11.73-48.57-26.66-3.19-3.76-6.11-7.84-8.74-12.2-3.08-5.07-5.76-10.54-8.01-16.3-6.57-16.88-9.41-36.41-7.36-56.85,4.95-49.52,36.89-88.16,75.08-94.75,5.12-.89,10.36-1.2,15.67-.87.88.05,1.77.12,2.65.2,3.62.36,7.16,1.01,10.59,1.91,26.71,7.07,47.68,30.08,57.19,60.21.95,2.97,1.77,6.01,2.48,9.11.64,2.81,1.19,5.68,1.63,8.57,1.6,10.28,1.92,21.11.81,32.2-4.02,40.26-25.87,73.31-54.41,87.81Z"/>
      <ellipse class="cls-5" cx="242.21" cy="336.07" rx="17.2" ry="32.56" transform="translate(-20.49 15.76) rotate(-3.58)"/>
      <ellipse class="cls-5" cx="289.01" cy="347.37" rx="23.23" ry="15.72" transform="translate(-114.73 550.33) rotate(-76.93)"/>
      <polygon class="cls-6" points="260.63 386.15 261.44 393.46 259.82 404.97 256.72 414.49 257.51 417.34 277.5 414.11 297.65 401.53 308.33 385.39 310.85 375.5 304.15 378.06 290.78 382.71 274.08 385.35 260.63 386.15"/>
      <path class="cls-12" d="M299.99,293.61c-4.01.15-7.74,7.1-6.07,9.99.91,1.58,3.09.59,5.93,2.13,4.52,2.45,10.01,12.13,11.44,11.59,1.32-.5.23-8.6-3.79-15.89-2.12-3.85-4.37-7.94-7.51-7.82Z"/>
      <path class="cls-12" d="M225.16,266.81c-1.53.07.43-9.66,5.84-16.16,4.87-5.85,13.93-9.38,16.16-7.56.75.61.9,3.44,1.22,4.73.35,1.46.96,3.45.76,4.3-.59,2.45-5.73,1.82-10.86,4.14-4.1,1.86-7.44,10.28-13.11,10.56Z"/>
      <ellipse cx="236.48" cy="341.84" rx="7.64" ry="9.94" transform="translate(-23.61 17.6) rotate(-4.06)"/>
      <ellipse cx="284.63" cy="347.27" rx="9.94" ry="7.64" transform="translate(-93.5 589.4) rotate(-83.29)"/>
      <path d="M318.49,379c-.58-1.38-1.59-3.22-4.34-5.16-3.57-2.5-10.08-2.68-11.2-2.43-1.08.24-1.8,1.33-1.56,2.4.24,1.08,1.28,1.77,2.35,1.52.09-.01.21-.02.36-.01-5.66,3.07-13.66,6.38-24.72,7.75-10.23,1.26-20.5,1.11-26.81-.41-1.07-.26-2.16.41-2.42,1.48-.26,1.08.41,2.15,1.49,2.41,1.82.44,3.92.77,6.21,1,.37.04.76.07,1.14.09.34,3.9.3,9.71-.46,14.08-.94,5.42-2.16,9.74-3.72,13.21-1.28-.18-2.89-.45-5.27-.87-1.1-.19-2.12.54-2.31,1.63-.19,1.1.54,2.12,1.63,2.31,3.44.6,5.42.92,7.02,1.08,1.88.19,3.22.15,5.77.09l1.09-.02c10.84-.24,26.61-8.46,32.4-12.98,11.35-8.88,16.32-22.11,18.06-27.98.91.88,1.33,1.66,1.62,2.33.29.7.94,1.16,1.65,1.23.32.03.65-.01.97-.14,1.02-.42,1.51-1.6,1.08-2.62ZM292.66,403.03c-6.15,4.81-20.9,11.93-30.02,12.12l-1.1.03c-1,.02-1.79.04-2.51.04,1.43-3.52,2.55-7.72,3.44-12.8.13-.77.24-1.62.34-2.49l9.21-2.47-8.95-.48c.19-3.03.18-6.26-.04-9.11,5.17.16,10.97-.11,16.86-.84,14.07-1.74,23.48-6.48,29.52-10.16-1.44,4.85-6.09,17.81-16.74,26.14Z"/>
    </g>
    <path class="cls-2" d="M326.36,745.56c2.18-.61,4.33-1.4,6.57-1.73,2.1-.31,3.86-.77,5.67-.94.8-.08,1.49-.19,2.26-.16.16,0,.28-.15.2-.3-2.64-5.22-5.21-10.64-7.45-16.43-7.02-18.19-17.89-46.61-20.87-79.49-2.63-29.11-1.39-59.53.07-89.01,1.87-37.69,4.94-48.28,8.53-63.74-1.32-.14-2.32-.21-3.65-.17-1.52.04-3.75,0-5.66.08-1.47.06-2.64.27-4.13.09-2.24-.26-3.45-1.92-3.67-4.08-.32-3.12.75-6.34,1.72-9.26.79-2.37,1.68-4.74,2.24-7.18-7.39,3.15-16.59,6.06-27.26,7.28-12.83,1.47-30.71-.49-47.28-8.4-.4-.19-.77-.37-1.15-.56-.67,3.73-1.39,5.49-2.87,9.07-.79,1.9-1.96,5.07-2.57,7.04-.36,1.15-.84,2.52-1.23,3.58-.78,2.09-2.17,3.42-4.34,4.03-1.66.47-2.94.76-4.58,1.07-1.71.33-3.45.45-5.19.4-2.99-.08-6.3-.11-9.37-.47-2.84,11.51-5.47,25.45-6.92,41.28-.8,8.75-.94,17.38-.92,26.68,0,2.7.09,23.07,2.74,44.49,1.98,16.01,6.59,45.52,24.79,92.65,5.75,14.9,13.6,32.56,20.24,46.31,5.24-.31,6.87-.24,11.89,1.18.68.19,4.52,1.31,5.2,1.53,1.69.54,3.23,1.36,4.89,1.99,1.41.53,2.57,2.77,3.67,3.82,1.26,1.21,1.31,3.73,1.83,5.35,1.29,4.02,1.41,10.12,2.45,14.22.61,2.43,2.29,1.68,5.26,2.46,2.18.48,4.42.9,6.7,1.23,11.77,1.72,21.44.94,26.53.32,6.09-.74,10.64-1.88,12.24-2.28,3.9-.99,7.86-2.32,11.56-3.79-2.25-3.24-4.72-6.33-6.79-9.7-1.11-1.8-2.12-3.17-3.07-5.06-.82-1.63-2.06-3.36-2.64-5.2-.65-2.1-2.41-4.35-.46-6.16,1.28-1.19,3.2-1.59,4.83-2.04Z"/>
    <g class="cls-16">
      <g class="cls-15">
        <path class="cls-6" d="M223.95,645.84c4.49,4.85,8.16,10.93,12.8,15.54,2.12,2.11,4.48,3.59,6.97,4.61,1.89.6,3.82,1.08,5.76,1.51,1.37.17,2.75.25,4.15.21,3.16-.09,6.24-1,9.38-1.46,1.73-.99,3.59-1.47,5.34-2.46,3.8-2.16,7.32-5.42,10.44-9.13,2.42-2.87,4.63-6.19,7.05-9.1,2.69-4.88,4.83-10.31,6.25-16.11-.17-1.23-.38-2.44-.73-3.58-.58-1.91-2.22-4.3-3.99-3.52-1.72.75-2.93,3.57-3.92,5.45-.62,1.19-1.3,2.31-2.01,3.38-3.11,8.74-8.43,16.01-14.99,20.26-.8.83-1.63,1.61-2.52,2.24-1.82,1.29-3.92,2-5.9,2.42-5.95,1.24-11.85-.7-16.88-4.48,0,0-.01,0-.02-.01-.03-.02-.06-.05-.09-.07-3.62-2.48-6.75-6.04-9.16-10.42-.27-.3-.54-.61-.78-.98-1.45-2.21-2.11-5.37-2.92-8.09-.5-1.69-1.77-4.71-1.2-6.78-.02-.19-.06-.37-.08-.56l.34-.06c.21-.39.51-.73.94-.99.84-.51,1.86-.64,2.74-.86,1.39-.35,2.68-.33,4.05-.04.4.09.76.17,1.08.34l56.88-9.96c.26-.98.51-1.97.61-2.97.19-1.94-.36-3.92-.83-5.67-.97-3.64-2.07-7.17-2.85-10.92-.41-1.96-.8-3.93-1.21-5.89-1.35-1.69-2.69-3.37-3.99-5.13-2.85-3.86-5.61-7.72-9.55-9.58-2.46-1.17-5.06-1.93-7.62-2.71-2.44-.75-4.85-1.51-7.37-1.82-4.43-.55-8.92-.34-13.32-1.11-1.17.68-2.16,1.75-3.4,2.66-2.06,1.51-4.14,2.35-6.06,4.28-1.59,1.59-3.13,3.06-5.02,3.86-.39.16-.77.32-1.16.47-.49.78-.96,1.58-1.4,2.46-1.48,2.92-3.2,5.37-5.09,7.81-.17.21-.32.44-.48.66-.08.25-.16.49-.24.73-.81,4.88-2.56,9.43-3.71,14.23-.69,2.87-1.09,5.75-.89,8.69.21,3.19.48,6.29.38,9.53-.23,7.08,2.1,13.49,3.56,20.03.23,1.03.45,2.05.68,3.08ZM226.23,615.32c.19-1.16.6-2.24.82-3.4.23-1.24.38-2.49.67-3.72.03-.13.08-.24.11-.37,3.39-15.61,13.55-28.13,26.05-30.32,5.27-.92,10.27.14,14.67,2.71.43.13.85.35,1.25.62.84.56,1.69,1,2.56,1.51,1.77,1.04,3.42,2.64,4.95,4.18,2.7,2.72,4.49,6.17,6.09,10.16.44,1.09.87,2.22,1.07,3.46.18,1.12-.12,2.22,0,3.31.09.92.73,1.49.75,2.5.02,1.05-.52,2.06-1.22,2.53-.63.43-1.32.32-1.97.21-.77-.13-1.52.1-2.3.26-.97.2-2.01.42-3.03.46-.77.31-1.57.54-2.28.27l-21.5,3.76c-.35.12-.71.24-1.06.36-1.86.65-3.76,1.1-5.65,1.04-.15,0-.27-.08-.39-.16l-9.8,1.72c-.5.37-.96.43-1.35.24l-3.98.7c-.13.06-.26.11-.4.17-.68.29-1.35.67-2.04.87-.6.17-1.09,0-1.44-.36l-.18.03c0-.08.01-.16.01-.23-.4-.58-.56-1.49-.39-2.5Z"/>
      </g>
      <path class="cls-6" d="M273.58,609.09c-.39-.47-.63-1.08-.83-1.73-.08-.25-.14-.51-.22-.76-.28-.77-.49-1.62-.68-2.5-.02-.05-.04-.11-.07-.16-.15-.34-.31-.69-.45-1.05-.49-.88-1-1.73-1.62-2.45-1.99-2.32-4.31-4.11-6.77-5.43-4.72-2.51-9.69-3.01-14.77-2.01-3.6,2.36-6.62,6.08-8.73,10.62-.19,1.54-.41,3.06-1.03,4.45-.09.19-.2.37-.29.55.05.6-.16,1.21-.53,1.66-.12.15.11,2.4.08,2.81-.1,1.22-.62,2.29-1.36,3.03,0,.07-.01.15-.02.22-.1,1.68,0,5.05.28,6.65.05.28.12.55.17.82.05.08.11.14.16.24.65,1.34.99,2.86,1.46,4.32.11.35.08.75-.03,1.11,3.45,9.07,10.27,14.13,18.31,12.72,7.17-1.25,13.19-7.62,16.17-16-.02-.06-.05-.11-.07-.17-.13-.3-.27-.58-.42-.86-.08-.14-.16-.28-.25-.42,0,0-.04-.05-.07-.1.03.05.06.08-.02-.03-.13-.17-.22-.37-.29-.57-3.34-.52-6.8,2.26-10.08,4.02-3.21,1.72-7.18,2.57-10.09.46-2.41-1.26-4.3-3.88-5.15-7.27l28.41-4.97s.14-3.58-.28-6.59c-.33-.1-.65-.29-.93-.63ZM252.89,613.46c-.35.12-.71.24-1.06.36-1.86.65-3.76,1.1-5.65,1.04-.72-.02-1.02-1.07-.95-1.9.18-2.13,1.57-4.17,2.66-5.66,1.27-1.73,2.71-3.44,4.35-4.49,1.79-1.15,3.92-.58,5.55.46.14.09.27.19.41.28,3.05.88,5.51,3.81,6.51,7.82l-11.82,2.07Z"/>
    </g>
    <g>
      <path class="cls-6" d="M349.51,635.1c-.38,2.98-6.92-.66-11.66,2.26-2.91,1.79-3.9,4.92-4.83,6.93-2.44,5.31-2.18,6.69-3.89,9.94-.81,1.53-2.39,3.7-4.06,3.04-2.39-.94-3.62-6.83-1.79-11.85,1.98-5.45,6.23-7.78,5.42-9.13-.63-1.05-3.85-.75-6.4.49-1.29.62-2.23,1.4-2.99,2.25-2.28,2.51-2.97,5.6-6.57,6.88-1.76.63-4.41.89-5.33-.32-1.4-1.83,1.31-6.8,4.63-9.96,2.67-2.55,5.42-3.62,6.8-4.35.62-.33.96-.59.9-.89-.05-.26-.41-.5-.98-.68-1.52-.47-4.57-.56-7.58.26-5,1.37-5.85,4.15-11.95,6.41-2.26.84-5.88,2.17-6.79.99-1.36-1.75,2.48-9.49,8.98-12.29,6.02-2.6,10.11-1.43,16.44-3.23.2-.06.4-.13.59-.23,1.86-.86,3.22-3.05,2.84-4.07-.27-.74-1.46-.83-2.96-.9-.01-.67-.02-1.33-.03-2-.02-.68-.02-1.35-.03-2.03-.01-.7-.02-1.4-.02-2.1,2.82.85,6.34,2.19,10.47,3.95,4.17,1.77,6.85-2.11,9.91.61,6.81,6.05,11.39,16.07,10.88,20.02Z"/>
      <path class="cls-12" d="M339.96,613.58c-2.41-2.14-4.85-1.5-6.62-1.03-1.39.36-2.49.65-3.84.08-4.65-1.98-8.34-3.37-11.26-4.2,0,.7,0,1.39,0,2.09,0,.7.01,1.4.02,2.1,2.29.73,5.42,1.88,9.66,3.69,2.61,1.11,4.81.53,6.42.11,1.73-.46,2.21-.5,2.95.15,6.3,5.61,10.2,14.44,10.25,17.79-.51.02-1.31-.04-1.94-.09-2.46-.19-5.83-.45-8.81,1.38-3.04,1.88-4.29,4.8-5.21,6.93-.13.31-.26.6-.39.87-1.3,2.84-1.87,4.63-2.34,6.08-.42,1.31-.75,2.34-1.5,3.76-.68,1.3-1.35,1.93-1.64,2.08-.85-.59-2.18-4.82-.56-9.27.94-2.59,2.45-4.37,3.66-5.8,1.27-1.49,2.7-3.18,1.59-5.04-.71-1.19-2.07-1.62-3.6-1.62-1.85,0-3.94.63-5.38,1.34-.89.44-1.65.93-2.3,1.47-1.57,1.28-2.53,2.76-3.36,4.03-1.11,1.69-1.91,2.91-3.7,3.55-1.27.45-2.58.49-3.05.32-.12-1.04,1.49-4.5,4.4-7.27,1.97-1.87,3.97-2.85,5.43-3.57.04-.02.07-.04.11-.05,1.43-.7,3.14-1.6,2.74-3.49-.1-.48-.41-1.17-1.27-1.7-.45-.27-1.05-.49-1.76-.64-2.15-.47-5.27-.34-8.02.41-2.88.79-4.6,2.02-6.26,3.22-1.52,1.09-3.09,2.22-5.86,3.25-.92.34-3.1,1.14-4.32,1.31.44-2.03,3.33-6.89,8-8.9,3.11-1.35,5.61-1.58,8.5-1.86,2.35-.22,4.77-.45,7.7-1.29.04-.01.08-.02.11-.04,2.09-.63,3.61-2.37,4.28-3.69.58-1.15.71-2.25.37-3.19-.74-1.98-2.91-2.11-4.87-2.2,0,.67.02,1.33.03,2s.03,1.34.05,2.01c.19.01.38.02.57.03-.15.21-.34.42-.56.61-.31.28-.68.51-1.08.63-2.58.73-4.81.94-6.98,1.15-2.95.28-6.01.57-9.71,2.16-5.32,2.3-9.23,7.6-10.22,11.42-.43,1.67-.27,2.99.46,3.94,1.81,2.34,5.83.85,9.07-.35,3.27-1.2,5.14-2.56,6.8-3.75,1.56-1.12,2.79-2.01,4.97-2.6.9-.25,1.77-.39,2.57-.47-1.13.69-2.37,1.57-3.61,2.75-3.48,3.32-7.29,9.42-4.84,12.62,1.75,2.3,5.6,1.7,7.59.99,3.06-1.09,4.47-3.23,5.7-5.12.14-.21.28-.43.42-.63.93-1.4,1.87-2.61,3.65-3.47.89-.43,1.8-.69,2.56-.82-1.27,1.5-3.17,3.75-4.34,6.98-.77,2.1-1.08,4.34-1,6.41.02.88.12,1.73.29,2.53.55,2.65,1.82,4.74,3.64,5.46.46.18.91.27,1.37.27,1.88,0,3.76-1.5,5.2-4.24.91-1.74,1.31-2.97,1.77-4.41.45-1.41.97-3.01,2.17-5.62.14-.3.28-.63.42-.97.79-1.82,1.68-3.89,3.64-5.1,1.87-1.15,4.28-.97,6.41-.8.55.04,1.18.09,1.81.09,1.98,0,4.05-.46,4.38-3,.61-4.78-4.3-15.32-11.54-21.77Z"/>
    </g>
  </g>
  <polygon class="cls-6" points="81.57 500.95 67.36 498.5 62.01 480.46 68.27 466.25 78.36 468.39 84.63 485.51 81.57 500.95"/>
  <path class="cls-7" d="M64.82,473.53c-3.51-2.6-23.5-15.72-22.82-19.03.78-3.8,2.58-3.7,3.22-3.93,2.02-.75,29.78,16.82,30.44,17.2"/>
  <path class="cls-4" d="M80.44,501.21c.58-.19,1.58-.71,2.27-.29,1.42.86.79,3.85,1.56,4.04.54.14,1.59-1.66,3.56-4.49.81-1.16,1.37-2.09,2.05-3.14.49-.76,3.83-5.06,6.52-10.85.59-1.27,2.21-4.74,1.2-5.58-.51-.43-1.2.27-2.21.15-2.61-.29-4.76-6.81-6.63-10.37-2.61-4.96-2.66-5.12-3.58-8.44-1.81-6.54,1.07-7.48-1.65-12.61-.21-.4-1.63-3.07-3.54-3.08-2.88,0-4.58,4.4-4.37,10.98.1,3.18-.86,6.61.48,10.84,1,3.16,2.57,5.44,3.67,6.8"/>
  <path class="cls-4" d="M54.5,491.43c.79.12,7.66,2.48,8.95,2.27,1.8-.29,5.12-1.33,5.37-2.94.21-1.39-1.98-2.43-6.64-5.44-8.54-5.53-7.14-6-9.41-4.94-1.95.9-1.68,6.63-1.51,6.96,1.48,2.79,4.84,5.72,6.06,6.29,4.59,2.12,3.87,1.16,11.32,4.37.86.37,1.54.65,2.22.92,5.2,2.01,6.25,2.33,7.04,2.44.78.11,3.17-.16,4.67-.32"/>
  <path class="cls-7" d="M53.77,476.41c-.72-.77-1.06-2.98-.17-4.78,1.21-2.45,4.38-.88,5.11-.67,8.09,2.31,13.04,6.91,17.4,11.57,1.59,1.7,1.32,2.54.79,3.37-1.33,2.08-6.45.79-8.64.38-2.04-.38-6.11-.89-14.49-9.87Z"/>
</svg>