<svg viewBox="0 0 65 65" xmlns="http://www.w3.org/2000/svg">
  <g transform="translate(0, 0)">
    <path d="M 62.14 33.11 C 62.18 32.45 62.21 31.78 62.21 31.11 C 62.21 30.44 62.18 29.77 62.14 29.11 C 61.11 12.86 47.61 0 31.11 0 C 14.61 0 1.1 12.87 0.07 29.11 C 0.03 29.77 0 30.44 0 31.11 C 0 31.78 0.03 32.45 0.07 33.11 C 1.1 49.36 14.6 62.22 31.1 62.22 C 46.45 62.22 59.19 51.1 61.74 36.48 L 53.81 36.48 C 51.39 46.78 42.15 54.45 31.11 54.45 C 18.9 54.45 8.89 45.07 7.87 33.12 L 62.14 33.12 Z M 7.87 29.11 C 8.88 17.16 18.9 7.78 31.11 7.78 C 43.32 7.78 53.33 17.16 54.35 29.11 Z" fill="rgb(27, 206, 172)"/>
    <path d="M 30.957 13.56 C 29.947 5.76 23.447 0 15.537 0 C 7.627 0 1.197 5.83 0.117 13.56 C -0.023 14.55 -0.053 16.57 0.117 17.55 C 1.497 25.57 7.627 31.11 15.537 31.11 C 22.247 31.11 27.957 26.87 30.137 20.92 L 21.157 20.92 C 19.737 22.4 17.747 23.33 15.537 23.33 C 11.937 23.33 8.907 20.88 8.027 17.55 L 30.957 17.55 C 30.957 17.55 31.197 15.4 30.957 13.56 Z M 15.537 7.78 C 19.137 7.78 22.157 10.23 23.047 13.56 L 8.027 13.56 C 8.907 10.23 11.927 7.78 15.537 7.78 Z" fill="rgb(26, 198, 104)" transform="translate(15.573, 15.55)"/>
  </g>
</svg>
